# xmcd
#
# Track frame offsets: 
#        150
#        10050
#        21567
#        34955
#        42782
#        55635
#        66230
#        78050
#        94147
#        109500
#        120315
#        135522
#        145390
#        154775
#        167962
#        191227
#        205130
#        215285
#        225822
#
# Disc length: 3232 seconds
#
# Revision: 1
# Processed by: cddbd v1.5.2PL0 Copyright (c) Steve Scherf et al.
# Submitted via: ExactAudioCopy v0.95b4
#
DISCID=f70c9e13
DTITLE=Various Artist - Yee-Haw! The Other Side of Country
DYEAR=2001
DGENRE=Country
TTITLE0=Spur - Don't Ever Trust a Woman [1969]
TTITLE1=Arlie Neaville - Tawney [1969]
TTITLE2=Peter Grudzien - White Trash Hillbilly Trick [1973]
TTITLE3=Palmer Rocky - Scarlet Warning [1980]
TTITLE4=Maitreya Kali - Country Girl [1972]
TTITLE5=William C. Beeley - Galivanter [1968]
TTITLE6=Alex Kubetin - Rider [1980]
TTITLE7=The Bluebird - Going to Nevada [1970]
TTITLE8=Weird Herald - Just Yesterday
TTITLE9=Peter Grudzien - The Lost World [1973]
TTITLE10=Fresh Blueberry Pancake - Bad Boy Turns Good [1970]
TTITLE11=Flying Circus - Bety June [1970]
TTITLE12=Mother Truckers Yellow Duck - Kill the Pig [1968]
TTITLE13=The Wilson McKinley - Last One Asleep
TTITLE14=Dennis the Fox - Piledriver [1975]
TTITLE15=Kevin Vicalvi - Lover Now Alone [1974]
TTITLE16=Merrell Frankhauser - Your Painted Lives [1968]
TTITLE17=Arlie Neaville - Today Was the Time [1969]
TTITLE18=Greenwood, Curley and Clyde - One Time One Place [1972]
EXTD=CD: QDK Media CD 039 (2001), UPC 801670977827, EAN 4011760977828.
EXTT0=
EXTT1=(Jim Cuomo)
EXTT2=(Peter Grudzien)
EXTT3=
EXTT4=
EXTT5=(William C. Beeley)
EXTT6=
EXTT7=
EXTT8=
EXTT9=(Peter Grudzien)
EXTT10=
EXTT11=
EXTT12=
EXTT13=
EXTT14=
EXTT15=(Kevin Vicalvi)
EXTT16=
EXTT17=(Jim Cuomo)
EXTT18=
PLAYORDER=
